# xmcd
#
# Track frame offsets:
#	150
#	15513
#	29759
#	42526
#	63398
#	81086
#	99152
#	114503
#	135860
#	147598
#	163678
#
# Disc length: 2444 seconds
#
# Revision: 1
# Processed by: cddbd v1.5.2PL0 Copyright (c) Steve Scherf et al.
# Submitted via: audiograbber 1.83.01
#
DISCID=8e098a0b
DTITLE=Lucky Wilson Band - Back On The Track
DYEAR=2010
DGENRE=Country
TTITLE0=If I Try
TTITLE1=She's The One
TTITLE2=Anyway The Wind Blows
TTITLE3=Bartender Blues
TTITLE4=Back On The Track
TTITLE5=Roly Poly
TTITLE6=Nothing Like You
TTITLE7=The Problem
TTITLE8=Wedding Day
TTITLE9=Come Together
TTITLE10=Memory Lane
EXTD=
EXTT0=
EXTT1=
EXTT2=
EXTT3=
EXTT4=
EXTT5=
EXTT6=
EXTT7=
EXTT8=
EXTT9=
EXTT10=
PLAYORDER=
